<svg width="292" height="232" xmlns="http://www.w3.org/2000/svg" xmlns:xlink="http://www.w3.org/1999/xlink" overflow="hidden"><defs><clipPath id="clip0"><rect x="251" y="138" width="292" height="232"/></clipPath></defs><g clip-path="url(#clip0)" transform="translate(-251 -138)"><path d="M253.734 287.701C242.177 246.537 296.934 195.164 376.036 172.956 455.138 150.748 528.631 166.114 540.188 207.278 551.745 248.441 496.989 299.814 417.887 322.022 338.785 344.23 265.291 328.864 253.734 287.701Z" stroke="#35495E" stroke-width="1.33333" stroke-miterlimit="8" fill="#35495E" fill-rule="evenodd"/><rect x="252.5" y="275.5" width="67" height="93" stroke="#35495E" stroke-width="1.33333" stroke-miterlimit="8" fill="#35495E"/><rect x="372.5" y="282.5" width="66" height="87" stroke="#35495E" stroke-width="1.33333" stroke-miterlimit="8" fill="#35495E"/><rect x="475.5" y="217.5" width="66" height="151" stroke="#35495E" stroke-width="1.33333" stroke-miterlimit="8" fill="#35495E"/><path d="M288.904 235.909C279.941 201.781 320.929 161.442 380.454 145.809 439.978 130.176 495.498 145.169 504.461 179.297 513.424 213.424 472.436 253.763 412.912 269.396 353.387 285.029 297.867 270.036 288.904 235.909Z" stroke="#00A2E8" stroke-width="1.33333" stroke-miterlimit="8" fill="#00A2E8" fill-rule="evenodd"/></g></svg>